<svg xmlns="http://www.w3.org/2000/svg" version="1.1" xmlns:xlink="http://www.w3.org/1999/xlink" xmlns:svgjs="http://svgjs.com/svgjs" width="1440" height="560" preserveAspectRatio="none" viewBox="0 0 1440 560"><g mask="url(&quot;#SvgjsMask1122&quot;)" fill="none"><rect width="1440" height="560" x="0" y="0" fill="url(#SvgjsLinearGradient1123)"></rect><path d="M1440 0L1137.96 0L1440 148.83z" fill="rgba(255, 255, 255, .1)"></path><path d="M1137.96 0L1440 148.83L1440 255.45000000000002L681.09 0z" fill="rgba(255, 255, 255, .075)"></path><path d="M681.0899999999999 0L1440 255.45000000000002L1440 335.04L569.3 0z" fill="rgba(255, 255, 255, .05)"></path><path d="M569.3 0L1440 335.04L1440 417.98L258.74999999999994 0z" fill="rgba(255, 255, 255, .025)"></path><path d="M0 560L602.91 560L0 327.55z" fill="rgba(0, 0, 0, .1)"></path><path d="M0 327.55L602.91 560L818.0799999999999 560L0 273.82z" fill="rgba(0, 0, 0, .075)"></path><path d="M0 273.82L818.0799999999999 560L1117.77 560L0 211.79z" fill="rgba(0, 0, 0, .05)"></path><path d="M0 211.78999999999996L1117.77 560L1119.29 560L0 200.67999999999995z" fill="rgba(0, 0, 0, .025)"></path></g><defs><mask id="SvgjsMask1122"><rect width="1440" height="560" fill="#ffffff"></rect></mask><linearGradient x1="15.28%" y1="-39.29%" x2="84.72%" y2="139.29%" gradientUnits="userSpaceOnUse" id="SvgjsLinearGradient1123"><stop stop-color="#0e2a47" offset="0"></stop><stop stop-color="rgba(2, 2, 6, 1)" offset="1"></stop></linearGradient></defs></svg>